<?xml version="1.0" encoding="UTF-8" standalone="no"?>
<!-- Created with Inkscape (http://www.inkscape.org/) -->

<svg
   width="260mm"
   height="260mm"
   viewBox="0 0 260 260"
   version="1.1"
   id="svg1"
   xml:space="preserve"
   inkscape:version="1.4 (e7c3feb1, 2024-10-09)"
   sodipodi:docname="CoolNeUI.svg"
   xmlns:inkscape="http://www.inkscape.org/namespaces/inkscape"
   xmlns:sodipodi="http://sodipodi.sourceforge.net/DTD/sodipodi-0.dtd"
   xmlns="http://www.w3.org/2000/svg"
   xmlns:svg="http://www.w3.org/2000/svg"><sodipodi:namedview
     id="namedview1"
     pagecolor="#ffffff"
     bordercolor="#000000"
     borderopacity="0.25"
     inkscape:showpageshadow="2"
     inkscape:pageopacity="0.0"
     inkscape:pagecheckerboard="0"
     inkscape:deskcolor="#d1d1d1"
     inkscape:document-units="mm"
     inkscape:zoom="0.28690496"
     inkscape:cx="33.11201"
     inkscape:cy="332.86284"
     inkscape:window-width="1280"
     inkscape:window-height="668"
     inkscape:window-x="0"
     inkscape:window-y="25"
     inkscape:window-maximized="0"
     inkscape:current-layer="layer1" /><defs
     id="defs1" /><g
     inkscape:label="Layer 1"
     inkscape:groupmode="layer"
     id="layer1"><path
       style="opacity:0.810997;fill:#f8f9fa;fill-opacity:1;stroke-width:0.250572"
       id="path1"
       sodipodi:type="arc"
       sodipodi:cx="130.96329"
       sodipodi:cy="131.26318"
       sodipodi:rx="100"
       sodipodi:ry="100"
       sodipodi:start="2.0726268"
       sodipodi:end="2.0532658"
       sodipodi:arc-type="arc"
       d="M 82.860175,218.93354 A 100,100 0 0 1 43.061132,83.584979 100,100 0 0 1 178.21547,43.131285 100,100 0 0 1 219.32287,178.08823 100,100 0 0 1 84.56647,219.84837"
       sodipodi:open="true" /><circle
       style="opacity:1;fill:#161719;fill-opacity:1;stroke:#141617;stroke-width:0.269385;stroke-dasharray:none;stroke-opacity:1"
       id="path4"
       cx="129.36708"
       cy="131.18765"
       r="60" /><path
       style="fill:#faa905;fill-opacity:1;stroke-width:0.265;stroke-dasharray:none"
       d="m 168.25571,115.61891 59.62874,-23.996924 c 0,0 17.09814,-7.13707 2.27957,-31.56279 -14.81858,-24.42572 -39.62594,-37.91489 -39.62594,-37.91489 0,0 -50.3747,-27.6932498 -52.11249,5.20646 -1.7378,32.89969 -4.40419,62.70012 -4.40419,62.70012 0,0 6.70109,-0.28148 17.91001,5.80529 11.20892,6.086804 16.3243,19.762734 16.3243,19.762734 z"
       id="path3-8"
       sodipodi:nodetypes="ccscscsc" /><ellipse
       style="opacity:1;fill:#e9ecef;fill-opacity:1;stroke-width:0.264583"
       id="path2"
       cx="129.80338"
       cy="130.19122"
       rx="28.833294"
       ry="28.586859" /><path
       style="opacity:1;fill:#14429e;fill-opacity:1;stroke-width:0.264583"
       d="m 96.164711,105.78592 -51.6633,-38.240595 c 0,0 -15.03231,-10.83116 -28.08503,14.58208 C 3.3636712,107.54065 4.8584212,135.73866 4.8584212,135.73866 c 0,0 2.7782798,57.41784 31.7187298,41.67424 28.94044,-15.7436 55.72645,-29.07345 55.72645,-29.07345 0,0 -3.7481,-5.56198 -4.43042,-18.29867 -0.68232,-12.7367 8.29153,-24.25486 8.29153,-24.25486 z"
       id="path3" /><path
       style="fill:#c31111;fill-opacity:1;stroke-width:0.264583"
       d="m 123.50539,170.69983 -9.37381,63.58907 c 0,0 -2.46677,18.36299 26.09873,17.89588 28.5655,-0.46711 52.72989,-15.07686 52.72989,-15.07686 0,0 49.32952,-29.51483 21.80318,-47.61765 -27.52631,-18.10281 -51.90835,-35.44328 -51.90835,-35.44328 0,0 -3.13862,5.92729 -14.04999,12.53265 -10.91138,6.60536 -25.29965,4.12019 -25.29965,4.12019 z"
       id="path3-8-4"
       sodipodi:nodetypes="ccscscsc" /></g></svg>
